<svg viewBox="0 0 1160 450" xmlns="http://www.w3.org/2000/svg" font-family="'Pretendard','Apple SD Gothic Neo','Malgun Gothic',sans-serif">
<defs>
<marker id="arr" viewBox="0 0 10 10" refX="9" refY="5" markerWidth="7" markerHeight="7" orient="auto-start-reverse">
<path d="M0 0 L10 5 L0 10 z" fill="#888888"/>
</marker>
</defs>
<text x="20" y="26" font-size="14" fill="#666666">인벤토리 구조 — 인벤 · 퀵슬롯은 별개 공간, 표시는 Delegate 갱신</text>

<rect x="36" y="86" width="280" height="120" rx="8" fill="#ffffff" stroke="#C8C8C8" stroke-width="1.5"/>
<text x="176" y="124" text-anchor="middle" font-size="17" fill="#111111">Inventory</text>
<text x="176" y="152" text-anchor="middle" font-size="12.5" fill="#555555">16슬롯 · ItemID · 수량 · 내구도</text>
<text x="176" y="174" text-anchor="middle" font-size="12.5" fill="#777777">이동 · 드랍 · 사용의 기준 데이터</text>

<rect x="440" y="86" width="280" height="120" rx="8" fill="#ffffff" stroke="#1A1A1A" stroke-width="2"/>
<text x="580" y="124" text-anchor="middle" font-size="17" fill="#111111">QuickSlot</text>
<text x="580" y="152" text-anchor="middle" font-size="12.5" fill="#555555">독립 장착 공간</text>
<text x="580" y="174" text-anchor="middle" font-size="12.5" fill="#777777">인벤 ↔ 퀵 이동 · 병합 · 교체 처리</text>

<rect x="844" y="86" width="280" height="120" rx="8" fill="#ffffff" stroke="#C8C8C8" stroke-width="1.5"/>
<text x="984" y="124" text-anchor="middle" font-size="17" fill="#111111">HUD 퀵슬롯</text>
<text x="984" y="152" text-anchor="middle" font-size="12.5" fill="#555555">표시 전용</text>
<text x="984" y="174" text-anchor="middle" font-size="12.5" fill="#777777">Delegate 수신 후 갱신</text>

<line x1="320" y1="146" x2="436" y2="146" stroke="#888888" stroke-width="1.6" marker-start="url(#arr)" marker-end="url(#arr)"/>
<text x="378" y="128" text-anchor="middle" font-size="12" fill="#555555">이동 · 병합 · 교체</text>
<text x="378" y="170" text-anchor="middle" font-size="11.5" fill="#999999">별개 공간</text>

<line x1="724" y1="146" x2="840" y2="146" stroke="#888888" stroke-width="1.6" marker-end="url(#arr)"/>
<text x="782" y="128" text-anchor="middle" font-size="12" fill="#555555">변경 통지</text>
<text x="782" y="170" text-anchor="middle" font-size="11.5" fill="#999999" font-family="Consolas,monospace">OnQuickSlotUpdated</text>

<rect x="36" y="312" width="1088" height="92" rx="8" fill="#1A1A1A"/>
<text x="58" y="342" font-size="12.5" fill="#BFBFBF">별개 공간으로 설계한 이유</text>
<text x="580" y="372" text-anchor="middle" font-size="14.5" fill="#ffffff">① 퀵슬롯 아이템은 인벤토리에 보이지 않음    ② 인벤 공간을 차지하지 않음    ③ 아이템 이동 로직 설계가 깔끔해짐</text>
</svg>