<svg viewBox="0 0 1160 430" xmlns="http://www.w3.org/2000/svg" font-family="'Pretendard','Apple SD Gothic Neo','Malgun Gothic',sans-serif">
<defs>
<marker id="arr" viewBox="0 0 10 10" refX="9" refY="5" markerWidth="7" markerHeight="7" orient="auto-start-reverse">
<path d="M0 0 L10 5 L0 10 z" fill="#888888"/>
</marker>
</defs>
<text x="20" y="24" font-size="14" fill="#666666">QuickSlotComponent.h / .cpp · QuickSlotWidget.cpp — 표시 갱신 결합 분리</text>
<text x="24" y="50" font-size="14" fill="#999999">수정 전 — 직접 의존</text>
<text x="586" y="50" font-size="14" fill="#111111">수정 후 — Delegate(Observer)</text>
<line x1="560" y1="58" x2="560" y2="336" stroke="#E0E0E0" stroke-width="1.5"/>

<rect x="150" y="84" width="250" height="56" rx="8" fill="#ffffff" stroke="#C8C8C8" stroke-width="1.5"/>
<text x="275" y="118" text-anchor="middle" font-size="14" fill="#111111" font-family="Consolas,monospace">QuickSlotComponent</text>
<rect x="150" y="210" width="250" height="56" rx="8" fill="#ffffff" stroke="#C8C8C8" stroke-width="1.5"/>
<text x="275" y="244" text-anchor="middle" font-size="14" fill="#111111" font-family="Consolas,monospace">QuickSlotWidget</text>
<line x1="275" y1="140" x2="275" y2="206" stroke="#888888" stroke-width="1.6" marker-end="url(#arr)"/>
<text x="290" y="180" font-size="12.5" fill="#777777">Widget 타입에 직접 의존</text>
<text x="275" y="300" text-anchor="middle" font-size="12.5" fill="#777777">갱신 호출이 호출부마다 흩어져 추적 어려움</text>

<rect x="600" y="70" width="232" height="50" rx="8" fill="#ffffff" stroke="#C8C8C8" stroke-width="1.5"/>
<text x="716" y="100" text-anchor="middle" font-size="13" fill="#111111" font-family="Consolas,monospace">QuickSlotComponent</text>
<rect x="600" y="142" width="232" height="50" rx="8" fill="#ffffff" stroke="#C8C8C8" stroke-width="1.5"/>
<text x="716" y="172" text-anchor="middle" font-size="12.5" fill="#111111" font-family="Consolas,monospace">NotifyQuickSlotChanged()</text>
<rect x="600" y="214" width="232" height="56" rx="8" fill="#1A1A1A"/>
<text x="716" y="240" text-anchor="middle" font-size="13" fill="#ffffff" font-family="Consolas,monospace">OnQuickSlotUpdated</text>
<text x="716" y="259" text-anchor="middle" font-size="11.5" fill="#BFBFBF">멀티캐스트 Delegate · Broadcast</text>

<line x1="716" y1="120" x2="716" y2="138" stroke="#888888" stroke-width="1.6" marker-end="url(#arr)"/>
<line x1="716" y1="192" x2="716" y2="210" stroke="#888888" stroke-width="1.6" marker-end="url(#arr)"/>

<rect x="904" y="176" width="232" height="40" rx="6" fill="#ffffff" stroke="#C8C8C8" stroke-width="1.5"/>
<text x="1020" y="201" text-anchor="middle" font-size="13" fill="#111111">QuickSlot Widget</text>
<rect x="904" y="222" width="232" height="40" rx="6" fill="#ffffff" stroke="#C8C8C8" stroke-width="1.5"/>
<text x="1020" y="247" text-anchor="middle" font-size="13" fill="#111111">HUD 퀵슬롯</text>
<rect x="904" y="268" width="232" height="40" rx="6" fill="#ffffff" stroke="#C8C8C8" stroke-width="1.5"/>
<text x="1020" y="293" text-anchor="middle" font-size="13" fill="#111111">추가 위젯 (확장)</text>

<path d="M832 242 L868 242 L868 196 L900 196" fill="none" stroke="#888888" stroke-width="1.6" marker-end="url(#arr)"/>
<path d="M832 242 L900 242" fill="none" stroke="#888888" stroke-width="1.6" marker-end="url(#arr)"/>
<path d="M832 242 L868 242 L868 288 L900 288" fill="none" stroke="#888888" stroke-width="1.6" marker-end="url(#arr)"/>
<text x="1020" y="328" text-anchor="middle" font-size="12" fill="#999999">각자 NativeConstruct에서 바인딩</text>

<rect x="24" y="352" width="1112" height="62" rx="8" fill="#1A1A1A"/>
<text x="580" y="389" text-anchor="middle" font-size="14.5" fill="#ffffff">Component는 UI 타입을 몰라도 Broadcast만 — 위젯이 구독해 자동 갱신, 추가·교체가 쉬워짐</text>
</svg>