<svg viewBox="0 0 1160 430" xmlns="http://www.w3.org/2000/svg" font-family="'Pretendard','Apple SD Gothic Neo','Malgun Gothic',sans-serif">
<defs>
<marker id="arr" viewBox="0 0 10 10" refX="9" refY="5" markerWidth="7" markerHeight="7" orient="auto-start-reverse">
<path d="M0 0 L10 5 L0 10 z" fill="#888888"/>
</marker>
</defs>
<text x="20" y="26" font-size="14" fill="#666666">WorldItem.cpp · 월드 ↔ 인벤토리 아이템 전달</text>

<rect x="24" y="70" width="230" height="128" rx="8" fill="#ffffff" stroke="#C8C8C8" stroke-width="1.5"/>
<text x="139" y="108" text-anchor="middle" font-size="16" fill="#111111">월드 아이템</text>
<text x="139" y="134" text-anchor="middle" font-size="13" fill="#555555">FItemInstance 보유</text>
<text x="139" y="158" text-anchor="middle" font-size="12.5" fill="#777777">ItemID · 수량 · 내구도</text>

<rect x="452" y="70" width="230" height="128" rx="8" fill="#ffffff" stroke="#C8C8C8" stroke-width="1.5"/>
<text x="567" y="120" text-anchor="middle" font-size="16" fill="#111111">인벤토리</text>
<text x="567" y="146" text-anchor="middle" font-size="13" fill="#555555">공간만큼 추가</text>

<rect x="762" y="70" width="240" height="128" rx="8" fill="#ffffff" stroke="#C8C8C8" stroke-width="1.5"/>
<text x="882" y="112" text-anchor="middle" font-size="16" fill="#111111">남은 수량</text>
<text x="882" y="138" text-anchor="middle" font-size="13" fill="#555555">월드 아이템에</text>
<text x="882" y="158" text-anchor="middle" font-size="13" fill="#555555">그대로 유지</text>

<line x1="254" y1="134" x2="448" y2="134" stroke="#888888" stroke-width="1.6" marker-end="url(#arr)"/>
<text x="351" y="116" text-anchor="middle" font-size="13" fill="#111111">PickUp (F키)</text>
<text x="351" y="158" text-anchor="middle" font-size="12" fill="#555555" font-family="Consolas,monospace">AddItemInstance</text>

<line x1="682" y1="134" x2="758" y2="134" stroke="#888888" stroke-width="1.6" marker-end="url(#arr)"/>
<text x="720" y="116" text-anchor="middle" font-size="12.5" fill="#555555">공간 부족 시</text>

<rect x="24" y="320" width="978" height="84" rx="8" fill="#1A1A1A"/>
<text x="44" y="350" font-size="12.5" fill="#BFBFBF">핵심 설계</text>
<text x="513" y="356" text-anchor="middle" font-size="15" fill="#ffffff">ItemID만 넘기면 수량·내구도 상태가 끊김</text>
<text x="513" y="382" text-anchor="middle" font-size="13.5" fill="#BFBFBF">→ 월드 아이템도 FItemInstance 전체를 주고받아 상태를 보존</text>
</svg>