<svg viewBox="0 0 1160 430" xmlns="http://www.w3.org/2000/svg" font-family="'Pretendard','Apple SD Gothic Neo','Malgun Gothic',sans-serif">
<defs>
<marker id="arr" viewBox="0 0 10 10" refX="9" refY="5" markerWidth="7" markerHeight="7" orient="auto-start-reverse">
<path d="M0 0 L10 5 L0 10 z" fill="#888888"/>
</marker>
</defs>
<text x="20" y="26" font-size="14" fill="#666666">MoveInventoryToQuickSlot · 인벤 → 퀵슬롯 이동 (드래그 · 우클릭 공용)</text>

<rect x="24" y="56" width="210" height="64" rx="8" fill="#ffffff" stroke="#C8C8C8" stroke-width="1.5"/>
<text x="129" y="84" text-anchor="middle" font-size="15" fill="#111111">드래그 이동</text>
<text x="129" y="106" text-anchor="middle" font-size="12.5" fill="#555555">놓은 퀵슬롯 칸이 대상</text>

<rect x="24" y="132" width="210" height="64" rx="8" fill="#ffffff" stroke="#C8C8C8" stroke-width="1.5"/>
<text x="129" y="160" text-anchor="middle" font-size="15" fill="#111111">우클릭 이동</text>
<text x="129" y="182" text-anchor="middle" font-size="12.5" fill="#555555">빈 퀵슬롯 칸 자동 선택</text>

<rect x="266" y="84" width="244" height="84" rx="8" fill="#ffffff" stroke="#C8C8C8" stroke-width="1.5"/>
<text x="388" y="112" text-anchor="middle" font-size="15" fill="#111111">데이터 복사</text>
<text x="388" y="133" text-anchor="middle" font-size="12" fill="#333333" font-family="Consolas,monospace">FInventorySlot → FQuickSlotItem</text>
<text x="388" y="153" text-anchor="middle" font-size="12" fill="#666666">별개 구조체라 공통 필드만 복사</text>

<rect x="550" y="80" width="142" height="92" rx="8" fill="#F0F0F0" stroke="#BBBBBB" stroke-width="1.5"/>
<text x="621" y="120" text-anchor="middle" font-size="15" fill="#111111">도착 퀵슬롯</text>
<text x="621" y="142" text-anchor="middle" font-size="15" fill="#111111">칸 상태?</text>

<rect x="736" y="40" width="408" height="62" rx="8" fill="#ffffff" stroke="#C8C8C8" stroke-width="1.5"/>
<rect x="736" y="40" width="5" height="62" rx="2.5" fill="#1A1A1A"/>
<text x="756" y="68" font-size="15" fill="#111111">빈 칸</text>
<text x="756" y="90" font-size="13" fill="#555555">그대로 이동 → 인벤 칸 비움</text>

<rect x="736" y="112" width="408" height="62" rx="8" fill="#ffffff" stroke="#C8C8C8" stroke-width="1.5"/>
<rect x="736" y="112" width="5" height="62" rx="2.5" fill="#1A1A1A"/>
<text x="756" y="140" font-size="15" fill="#111111">같은 아이템</text>
<text x="756" y="162" font-size="13" fill="#555555">수량 합치기 (MaxStack) · 꽉 차면 스왑</text>

<rect x="736" y="184" width="408" height="62" rx="8" fill="#ffffff" stroke="#C8C8C8" stroke-width="1.5"/>
<rect x="736" y="184" width="5" height="62" rx="2.5" fill="#1A1A1A"/>
<text x="756" y="212" font-size="15" fill="#111111">다른 아이템</text>
<text x="756" y="234" font-size="13" fill="#555555">자리 교체 (스왑) · 기존 아이템은 인벤으로</text>

<path d="M234 88 L250 88 L250 108 L262 108" fill="none" stroke="#888888" stroke-width="1.6" marker-end="url(#arr)"/>
<path d="M234 164 L250 164 L250 144 L262 144" fill="none" stroke="#888888" stroke-width="1.6" marker-end="url(#arr)"/>
<line x1="510" y1="126" x2="546" y2="126" stroke="#888888" stroke-width="1.6" marker-end="url(#arr)"/>

<path d="M692 104 L714 104 L714 71 L732 71" fill="none" stroke="#888888" stroke-width="1.6" marker-end="url(#arr)"/>
<path d="M692 126 L714 126 L714 143 L732 143" fill="none" stroke="#888888" stroke-width="1.6" marker-end="url(#arr)"/>
<path d="M692 148 L704 148 L704 215 L732 215" fill="none" stroke="#888888" stroke-width="1.6" marker-end="url(#arr)"/>
<text x="716" y="64" font-size="12" fill="#999999">빈 칸</text>
<text x="716" y="136" font-size="12" fill="#999999">같은 ID</text>
<text x="708" y="208" font-size="12" fill="#999999">다른 ID</text>

<path d="M736 71 L718 71 L718 318" fill="none" stroke="#888888" stroke-width="1.6"/>
<path d="M736 143 L718 143" fill="none" stroke="#888888" stroke-width="1.6"/>
<path d="M736 215 L718 215" fill="none" stroke="#888888" stroke-width="1.6"/>
<line x1="718" y1="318" x2="718" y2="330" stroke="#888888" stroke-width="1.6" marker-end="url(#arr)"/>
<text x="726" y="310" font-size="12" fill="#999999">세 경로 공통</text>
<text x="756" y="278" font-size="12" fill="#999999">우클릭은 항상 빈 칸이 대상 → ① 경로로 이동</text>

<rect x="266" y="330" width="878" height="74" rx="8" fill="#1A1A1A"/>
<text x="705" y="362" text-anchor="middle" font-size="15.5" fill="#ffffff" font-family="Consolas,monospace">NotifyQuickSlotChanged()</text>
<text x="705" y="386" text-anchor="middle" font-size="13.5" fill="#BFBFBF">→ OnQuickSlotUpdated Delegate로 연결된 UI 자동 갱신</text>
</svg>